<?xml version="1.0" encoding="UTF-8" standalone="no"?><svg xmlns="http://www.w3.org/2000/svg" xmlns:xlink="http://www.w3.org/1999/xlink" contentScriptType="application/ecmascript" contentStyleType="text/css" height="297px" preserveAspectRatio="none" style="width:994px;height:297px;" version="1.1" viewBox="0 0 994 297" width="994px" zoomAndPan="magnify"><defs><filter height="300%" id="f8xain91uewc8" width="300%" x="-1" y="-1"><feGaussianBlur result="blurOut" stdDeviation="2.0"/><feColorMatrix in="blurOut" result="blurOut2" type="matrix" values="0 0 0 0 0 0 0 0 0 0 0 0 0 0 0 0 0 0 .4 0"/><feOffset dx="4.0" dy="4.0" in="blurOut2" result="blurOut3"/><feBlend in="SourceGraphic" in2="blurOut3" mode="normal"/></filter></defs><g><!--entity capteur--><path d="M17.7171,20.6573 C23.8608,3.7176 36.4126,3.9052 47.017,16.1842 C52.5779,3.178 63.5559,2.2348 71.285,14.0657 C82.2069,-0.7236 93.5842,0.3774 101.342,17.0851 C108.7748,3.6087 118.7865,1.6993 128.3416,14.9403 C138.1056,2.0866 148.409,1.4969 159.2183,13.6497 C166.1815,0.0904 178.0052,-3.3265 187.4838,11.1101 C194.6747,-2.75 202.1881,-3.3317 211.8653,8.7756 C224.0544,-4.5536 234.0982,-5.2865 243.1173,12.0104 C249.5841,-2.4866 262.2931,-2.9725 269.8832,10.9527 C278.7696,1.0732 292.0932,2.544 297.0006,15.6474 C304.5672,3.1252 317.548,0.2079 326.0495,14.6398 C335.7983,1.25 348.7761,-0.1667 356.5933,16.5964 C363.1817,6.1377 375.5319,3.7641 381.7419,16.9982 C415.7562,13.759 429.4429,37.5885 410.6629,65.7003 C403.2388,79.4664 393.1826,82.7448 381.7053,70.1535 C373.8557,85.4568 364.073,83.8011 353.3117,73.3655 C344.288,87.6952 334.1289,86.1645 323.9185,74.7189 C316.6311,84.922 307.632,84.5259 300.5392,74.4941 C292.3406,90.9313 280.3936,94.5924 268.2898,78.3476 C259.5768,88.7567 250.2813,87.7622 243.9244,75.7833 C237.8288,90.216 224.472,92.7071 213.5862,81.4377 C204.3173,95.305 191.6278,95.5386 184.4842,79.378 C174.5322,91.4606 165.2062,87.5255 158.4861,75.8425 C147.0292,90.6162 137.1847,88.4745 127.2628,74.1929 C118.5409,88.2028 107.5812,87.3912 99.6739,73.3905 C90.2816,87.7206 77.8388,83.0273 71.8791,69.9139 C64.7453,83.2642 53.0577,83.95 45.817,70.0161 C14.9724,69.7994 1.4344,47.7034 17.7171,20.6573 " fill="#A9DCDF" style="stroke: #ADD8E6; stroke-width: 1.5;"/><text fill="#000000" font-family="sans-serif" font-size="30" lengthAdjust="spacingAndGlyphs" textLength="380" x="21" y="50.8467">capteur au sein d'un ULD</text><!--entity routing--><polygon fill="#FFF5EE" filter="url(#f8xain91uewc8)" points="451,27.5,461,17.5,599,17.5,599,53.7969,589,63.7969,451,63.7969,451,27.5" style="stroke: #C0C0C0; stroke-width: 1.5;"/><line style="stroke: #C0C0C0; stroke-width: 1.5;" x1="589" x2="598" y1="27.5" y2="18.5"/><line style="stroke: #C0C0C0; stroke-width: 1.5;" x1="451" x2="589" y1="27.5" y2="27.5"/><line style="stroke: #C0C0C0; stroke-width: 1.5;" x1="589" x2="589" y1="27.5" y2="63.7969"/><text fill="#000000" font-family="sans-serif" font-size="14" lengthAdjust="spacingAndGlyphs" textLength="108" x="466" y="50.4951">Routing Service</text><!--entity decoding--><polygon fill="#FFF5EE" filter="url(#f8xain91uewc8)" points="444.5,143,454.5,133,605.5,133,605.5,169.2969,595.5,179.2969,444.5,179.2969,444.5,143" style="stroke: #C0C0C0; stroke-width: 1.5;"/><line style="stroke: #C0C0C0; stroke-width: 1.5;" x1="595.5" x2="604.5" y1="143" y2="134"/><line style="stroke: #C0C0C0; stroke-width: 1.5;" x1="444.5" x2="595.5" y1="143" y2="143"/><line style="stroke: #C0C0C0; stroke-width: 1.5;" x1="595.5" x2="595.5" y1="143" y2="179.2969"/><text fill="#000000" font-family="sans-serif" font-size="14" lengthAdjust="spacingAndGlyphs" textLength="121" x="459.5" y="165.9951">Decoding Service</text><!--entity posting--><polygon fill="#FFF5EE" filter="url(#f8xain91uewc8)" points="641,143,651,133,787,133,787,169.2969,777,179.2969,641,179.2969,641,143" style="stroke: #C0C0C0; stroke-width: 1.5;"/><line style="stroke: #C0C0C0; stroke-width: 1.5;" x1="777" x2="786" y1="143" y2="134"/><line style="stroke: #C0C0C0; stroke-width: 1.5;" x1="641" x2="777" y1="143" y2="143"/><line style="stroke: #C0C0C0; stroke-width: 1.5;" x1="777" x2="777" y1="143" y2="179.2969"/><text fill="#000000" font-family="sans-serif" font-size="14" lengthAdjust="spacingAndGlyphs" textLength="106" x="656" y="165.9951">Posting Service</text><!--entity threshold--><polygon fill="#FFF5EE" filter="url(#f8xain91uewc8)" points="435,249,445,239,599,239,599,275.2969,589,285.2969,435,285.2969,435,249" style="stroke: #C0C0C0; stroke-width: 1.5;"/><line style="stroke: #C0C0C0; stroke-width: 1.5;" x1="589" x2="598" y1="249" y2="240"/><line style="stroke: #C0C0C0; stroke-width: 1.5;" x1="435" x2="589" y1="249" y2="249"/><line style="stroke: #C0C0C0; stroke-width: 1.5;" x1="589" x2="589" y1="249" y2="285.2969"/><text fill="#000000" font-family="sans-serif" font-size="14" lengthAdjust="spacingAndGlyphs" textLength="124" x="450" y="271.9951">Threshold Service</text><!--entity notification--><polygon fill="#FFF5EE" filter="url(#f8xain91uewc8)" points="634,249,644,239,804,239,804,275.2969,794,285.2969,634,285.2969,634,249" style="stroke: #C0C0C0; stroke-width: 1.5;"/><line style="stroke: #C0C0C0; stroke-width: 1.5;" x1="794" x2="803" y1="249" y2="240"/><line style="stroke: #C0C0C0; stroke-width: 1.5;" x1="634" x2="794" y1="249" y2="249"/><line style="stroke: #C0C0C0; stroke-width: 1.5;" x1="794" x2="794" y1="249" y2="285.2969"/><text fill="#000000" font-family="sans-serif" font-size="14" lengthAdjust="spacingAndGlyphs" textLength="130" x="649" y="271.9951">Notification Service</text><!--entity mongo--><path d="M839.5,249.5 C839.5,239.5 911,239.5 911,239.5 C911,239.5 982.5,239.5 982.5,249.5 L982.5,274.7969 C982.5,284.7969 911,284.7969 911,284.7969 C911,284.7969 839.5,284.7969 839.5,274.7969 L839.5,249.5 " fill="#FF8C00" filter="url(#f8xain91uewc8)" style="stroke: #FFFFFF; stroke-width: 1.5;"/><path d="M839.5,249.5 C839.5,259.5 911,259.5 911,259.5 C911,259.5 982.5,259.5 982.5,249.5 " fill="none" style="stroke: #FFFFFF; stroke-width: 1.5;"/><text fill="#000000" font-family="sans-serif" font-size="14" lengthAdjust="spacingAndGlyphs" textLength="123" x="849.5" y="276.4951">Base de données</text><!--link capteur to routing--><path d="M416.1426,40.5 C425.9194,40.5 435.6963,40.5 445.4731,40.5 " fill="none" id="capteur-routing" style="stroke: #696969; stroke-width: 1.0;"/><polygon fill="#696969" points="450.5857,40.5,441.5857,36.5,445.5857,40.5,441.5857,44.5,450.5857,40.5" style="stroke: #696969; stroke-width: 1.0;"/><!--link routing to decoding--><path d="M525,63.5956 C525,82.0876 525,108.1023 525,127.8194 " fill="none" id="routing-decoding" style="stroke: #696969; stroke-width: 1.0;"/><polygon fill="#696969" points="525,132.9445,529,123.9445,525,127.9445,521,123.9445,525,132.9445" style="stroke: #696969; stroke-width: 1.0;"/><!--link decoding to posting--><path d="M605.8418,156 C615.7957,156 625.7496,156 635.7035,156 " fill="none" id="decoding-posting" style="stroke: #696969; stroke-width: 1.0;"/><polygon fill="#696969" points="640.9087,156,631.9087,152,635.9087,156,631.9087,160,640.9087,156" style="stroke: #696969; stroke-width: 1.0;"/><!--link posting to threshold--><path d="M671.2539,179.0004 C639.8672,195.8887 597.2189,218.8365 564.7209,236.3227 " fill="none" id="posting-threshold" style="stroke: #696969; stroke-width: 1.0;"/><polygon fill="#696969" points="560.0024,238.8617,569.8232,238.1194,564.4054,236.4924,566.0324,231.0746,560.0024,238.8617" style="stroke: #696969; stroke-width: 1.0;"/><!--link posting to mongo--><path d="M756.7461,179.0004 C788.4564,196.0628 831.6616,219.3103 864.2809,236.8618 " fill="none" id="posting-mongo" style="stroke: #696969; stroke-width: 1.0;"/><polygon fill="#696969" points="869.0141,239.4086,862.984,231.6216,864.6111,237.0394,859.1932,238.6664,869.0141,239.4086" style="stroke: #696969; stroke-width: 1.0;"/><!--link threshold to notification--><path d="M599.0625,262 C608.9036,262 618.7446,262 628.5857,262 " fill="none" id="threshold-notification" style="stroke: #696969; stroke-width: 1.0;"/><polygon fill="#696969" points="633.7319,262,624.7319,258,628.7319,262,624.7319,266,633.7319,262" style="stroke: #696969; stroke-width: 1.0;"/><!--
@startuml

skinparam BackgroundColor transparent

skinparam cloud {
    BorderColor LightBlue
    BackgroundColor APPLICATION
    FontSize 30
}

skinparam Arrow {
    color DimGrey
}
 
skinparam node {
    BackgroundColor SeaShell
    BorderColor Silver
    FontColor Black
}

skinparam database {
    BackgroundColor DarkOrange
    BorderColor LighGrey
    FontColor Black
}

cloud "capteur au sein d'un ULD" as capteur 
node "Routing Service" as routing
node "Decoding Service" as decoding
node "Posting Service" as posting
node "Threshold Service" as threshold
node "Notification Service" as notification

database "Base de données" as mongo

capteur -> routing
routing - -> decoding
decoding -> posting
posting - -> threshold
posting - -> mongo
threshold -> notification

@enduml

PlantUML version 1.2019.04(Fri Mar 29 16:44:36 CET 2019)
(GPL source distribution)
Java Runtime: OpenJDK Runtime Environment
JVM: OpenJDK 64-Bit Server VM
Java Version: 1.8.0_222-b05
Operating System: Linux
OS Version: 5.2.9-arch1-1-ARCH
Default Encoding: UTF-8
Language: en
Country: US
--></g></svg>